M48
;DRILL file {KiCad (5.0.2)-1} date 2019-05-19 오후 1:57:18
;FORMAT={-:-/ absolute / metric / decimal}
FMAT,2
METRIC,TZ
T1C0.400
T2C1.500
%
G90
G05
T1
X-4.572Y-46.99
X9.652Y-36.83
X14.478Y-87.884
X14.986Y-69.85
X19.05Y-19.812
X20.574Y-47.752
X21.59Y-29.464
X29.464Y-83.82
X29.972Y-87.63
X30.226Y-57.404
X30.48Y-33.528
X30.988Y-82.296
X31.242Y-41.656
X31.242Y-73.406
X32.258Y-77.724
X32.258Y-85.09
X32.512Y-86.614
X34.29Y-78.994
X36.83Y-18.034
X37.084Y-77.724
X37.338Y-72.39
X38.862Y-73.914
X39.116Y-75.692
X41.402Y-77.47
X42.672Y-65.278
X43.942Y-57.912
X44.45Y-19.558
X45.212Y5.08
X45.72Y-68.58
X46.99Y-19.558
X50.546Y-92.456
X52.578Y-90.17
X53.594Y-54.356
X56.134Y-75.184
X57.658Y-54.102
X57.912Y-85.09
X59.182Y-43.18
X61.214Y-21.59
X61.214Y-38.608
X63.246Y-19.558
X63.5Y-49.784
X63.5Y-58.166
X63.754Y3.556
X63.754Y-32.004
X64.516Y-19.304
X65.532Y-56.134
X67.056Y-46.228
X69.342Y-87.63
X69.85Y-2.794
X71.628Y-11.684
X72.898Y-54.102
X73.406Y-6.604
X73.406Y-14.986
X74.168Y-19.558
X75.692Y-18.034
X76.2Y-89.408
X77.724Y-29.464
X79.248Y-15.24
X79.248Y-39.37
X79.756Y-29.464
X81.534Y3.302
X81.534Y-37.084
X81.788Y-6.604
X82.296Y-22.352
X84.836Y-63.5
X87.376Y-35.052
X88.138Y-74.93
X88.392Y-22.606
X89.154Y-67.818
X90.424Y-28.194
X92.456Y-26.162
X94.234Y-21.082
X98.806Y-76.708
X99.568Y-29.972
X99.822Y2.54
X105.156Y-46.228
X107.188Y-57.658
X108.204Y-3.556
X109.474Y-17.526
X117.094Y-46.482
X117.094Y-51.816
X117.856Y-37.592
X118.872Y-73.152
X119.126Y-30.988
X121.666Y-15.748
X125.476Y-14.478
X127.254Y-12.7
X127.254Y-58.42
X129.286Y-35.052
X129.54Y-37.592
X134.874Y-63.246
X136.906Y-61.214
X137.414Y-30.988
X137.922Y-35.052
X138.176Y-20.066
X138.176Y-72.898
X140.208Y7.366
X141.224Y-3.302
X141.986Y-68.58
X142.24Y-57.404
X143.51Y-54.102
X145.034Y-68.58
X145.542Y-56.134
X148.336Y-53.34
X149.352Y-38.862
X149.86Y-53.34
X151.638Y-15.24
X151.638Y-20.574
X151.892Y-74.676
X152.908Y-16.002
X152.908Y-35.306
X152.908Y-56.896
X152.908Y-59.69
X153.162Y-54.61
X154.686Y-55.88
X156.718Y-16.002
X157.48Y-32.766
X158.242Y-44.958
X158.496Y-72.39
X161.036Y-15.748
X161.036Y-35.814
X161.036Y-84.328
X161.29Y-13.208
X161.544Y-14.224
X161.544Y-37.846
X162.56Y-13.208
X162.814Y-3.302
X163.576Y-13.208
X164.592Y-13.208
X164.846Y-22.352
X165.1Y-3.81
X165.608Y-10.922
X165.608Y-83.312
X166.116Y-5.842
X167.132Y-14.478
X167.132Y-19.05
X167.64Y-77.724
X168.656Y-83.312
X170.434Y3.302
X170.434Y-29.972
X171.196Y-1.016
X171.196Y-5.588
X171.45Y-14.478
X171.704Y-7.112
X171.958Y-6.35
X171.958Y-12.7
X172.466Y4.064
X172.466Y-67.564
X172.974Y-13.462
X173.228Y-5.588
X173.482Y-72.136
X173.482Y-82.296
X173.736Y-39.878
X174.244Y-8.636
X174.752Y-7.874
X175.006Y-70.612
X175.514Y-5.588
X175.514Y-84.328
X176.276Y-6.35
X176.276Y-12.446
X176.276Y-20.066
X176.784Y-13.716
X177.038Y-6.858
X177.038Y-14.732
X179.578Y-14.986
X179.832Y-29.718
X180.086Y-24.13
X180.848Y-16.51
X180.848Y-25.146
X181.102Y-74.93
X181.864Y6.604
X182.626Y-84.836
X182.88Y-56.134
X183.642Y1.524
X183.896Y-84.328
X184.404Y-4.572
X184.404Y-18.796
X184.912Y-26.416
X185.928Y-54.356
X185.928Y-74.93
X189.484Y-17.78
X191.008Y-59.69
X192.278Y-84.074
X192.786Y-27.178
X193.548Y-62.738
X194.056Y-60.706
X194.31Y-28.702
X194.818Y-57.15
X196.342Y-15.494
X196.85Y3.81
X197.104Y-57.658
X197.866Y-37.084
X198.882Y-18.796
X201.676Y-84.074
X202.438Y-31.75
X205.74Y-4.064
X208.28Y-33.782
X210.312Y-50.038
X212.344Y-84.074
X212.598Y-86.36
X213.868Y-2.54
X214.376Y-15.748
X214.376Y-18.288
X216.408Y0.254
X217.17Y-73.152
X218.186Y-63.5
X219.202Y-46.736
X221.996Y-1.778
X222.504Y-67.818
X223.266Y-74.93
X224.028Y-82.55
X224.79Y-6.096
X225.044Y-84.836
X226.06Y-70.612
X227.33Y-54.864
X228.346Y-11.684
X229.616Y-6.858
X230.378Y-3.81
X232.156Y-6.858
X232.664Y-4.572
X233.172Y-80.264
X235.204Y-2.54
X236.22Y-63.754
X236.728Y-34.29
X236.982Y-38.608
X237.998Y-74.93
X240.03Y-60.452
X240.03Y-67.564
X242.062Y-58.42
X243.078Y-35.306
X243.586Y-19.812
X245.11Y-21.336
X247.396Y-35.306
X247.904Y-14.224
X249.174Y-57.912
X251.206Y-14.224
X253.492Y-55.626
X260.096Y-2.286
X260.096Y-33.528
X260.604Y-24.13
X260.858Y-51.562
X263.398Y-26.924
X265.938Y-58.166
X266.954Y3.81
X271.018Y-37.592
X271.78Y-33.02
X272.542Y-15.24
X273.05Y-38.1
X273.05Y-48.514
X273.304Y-4.826
X273.812Y-30.48
X275.082Y-14.732
X275.082Y-28.956
X275.082Y-71.12
X276.352Y1.778
X276.352Y-11.176
X276.352Y-14.732
X276.86Y-43.434
X276.86Y-67.564
X277.368Y-0.508
X277.368Y-27.178
X278.384Y-43.18
X278.638Y-14.732
X278.892Y-27.178
X280.162Y1.778
X280.162Y-28.956
T2
X148.59Y-21.272
X154.94Y-18.732
X86.677Y-59.372
X93.027Y-56.832
X158.115Y-40.322
X164.465Y-37.782
X162.877Y-59.372
X169.227Y-56.832
X-3.81Y-21.272
X2.54Y-18.732
X43.815Y-40.322
X50.165Y-37.782
X200.977Y-59.372
X207.327Y-56.832
X112.871Y-97.472
X119.221Y-94.932
X53.34Y2.54
X59.69Y5.08
X110.49Y-21.272
X116.84Y-18.732
X129.54Y-21.272
X135.89Y-18.732
X77.153Y-78.422
X83.502Y-75.882
X205.74Y2.54
X212.09Y5.08
X3.334Y-59.372
X9.684Y-56.832
X91.44Y-21.272
X97.79Y-18.732
X124.777Y-59.372
X131.127Y-56.832
X72.39Y-21.272
X78.74Y-18.732
X24.765Y-40.322
X31.115Y-37.782
X248.602Y-97.472
X254.952Y-94.932
X72.39Y2.54
X78.74Y5.08
X115.252Y-78.422
X121.602Y-75.882
X81.915Y-40.322
X88.265Y-37.782
X62.865Y-40.322
X69.215Y-37.782
X267.652Y-97.472
X274.002Y-94.932
X286.702Y-97.472
X293.053Y-94.932
X286.702Y-40.322
X293.053Y-37.782
X250.984Y-59.372
X257.334Y-56.832
X253.365Y-21.272
X259.715Y-18.732
X39.052Y-78.422
X45.402Y-75.882
X100.965Y-40.322
X107.315Y-37.782
X205.74Y-97.472
X212.09Y-94.932
X191.452Y-78.422
X197.802Y-75.882
X41.434Y-97.472
X47.784Y-94.932
X67.627Y-59.372
X73.977Y-56.832
X243.84Y2.54
X250.19Y5.08
X262.89Y2.54
X269.24Y5.08
X143.827Y-59.372
X150.177Y-56.832
X139.065Y-40.322
X145.415Y-37.782
X239.077Y-78.422
X245.427Y-75.882
X220.028Y-59.372
X226.377Y-56.832
X227.171Y-97.472
X233.521Y-94.932
X224.79Y2.54
X231.14Y5.08
X0.952Y-40.322
X7.302Y-37.782
X120.015Y2.54
X126.365Y5.08
X215.265Y-40.322
X221.615Y-37.782
X-1.429Y-97.472
X4.921Y-94.932
X158.115Y2.54
X164.465Y5.08
X208.121Y-97.472
X214.471Y-94.932
X134.302Y-78.422
X140.653Y-75.882
X20.002Y-97.472
X26.352Y-94.932
X167.64Y-21.272
X173.99Y-18.732
X8.096Y-78.422
X14.446Y-75.882
X286.702Y2.54
X293.053Y5.08
X139.065Y2.54
X145.415Y5.08
X120.015Y-40.322
X126.365Y-37.782
X205.74Y-21.272
X212.09Y-18.732
X105.727Y-59.372
X112.078Y-56.832
X172.403Y-78.422
X178.752Y-75.882
X210.502Y-78.422
X216.852Y-75.882
X224.79Y-21.272
X231.14Y-18.732
X181.927Y-59.372
X188.278Y-56.832
X48.578Y-59.372
X54.927Y-56.832
X177.165Y-40.322
X183.515Y-37.782
X153.352Y-78.422
X159.702Y-75.882
X15.24Y-21.272
X21.59Y-18.732
X177.165Y2.54
X183.515Y5.08
X53.34Y-21.272
X59.69Y-18.732
X184.309Y-97.472
X190.659Y-94.932
X229.552Y-97.472
X235.903Y-94.932
X-3.81Y2.54
X2.54Y5.08
X234.315Y-40.322
X240.665Y-37.782
X186.69Y-21.272
X193.04Y-18.732
X286.702Y-21.272
X293.053Y-18.732
X258.127Y-40.322
X264.477Y-37.782
X34.29Y2.54
X40.64Y5.08
X58.102Y-78.422
X64.453Y-75.882
X29.527Y-59.372
X35.877Y-56.832
X196.215Y-40.322
X202.565Y-37.782
X-1.429Y-59.372
X4.921Y-56.832
X267.652Y-78.422
X274.002Y-75.882
X96.203Y-78.422
X102.552Y-75.882
X34.29Y-21.272
X40.64Y-18.732
X91.44Y2.54
X97.79Y5.08
T0
M30
