M48
;DRILL file {KiCad (5.0.2)-1} date 2019-05-19 오후 1:57:18
;FORMAT={-:-/ absolute / metric / decimal}
FMAT,2
METRIC,TZ
T1C1.700
T2C3.000
T3C4.000
%
G90
G05
T1
X166.37Y-23.812
X176.53Y-23.812
X6.826Y-80.962
X16.986Y-80.962
X285.433Y0.
X295.592Y0.
X137.795Y0.
X147.955Y0.
X118.745Y-42.862
X128.905Y-42.862
X204.47Y-23.812
X214.63Y-23.812
X104.457Y-61.912
X114.617Y-61.912
X171.132Y-80.962
X181.292Y-80.962
X209.232Y-80.962
X219.392Y-80.962
X223.52Y-23.812
X233.68Y-23.812
X180.657Y-61.912
X190.817Y-61.912
X47.307Y-61.912
X57.467Y-61.912
X175.895Y-42.862
X186.055Y-42.862
X152.082Y-80.962
X162.243Y-80.962
X13.97Y-23.812
X24.13Y-23.812
X175.895Y0.
X186.055Y0.
X52.07Y-23.812
X62.23Y-23.812
X183.039Y-100.012
X193.199Y-100.012
X228.282Y-100.012
X238.442Y-100.012
X-5.08Y0.
X5.08Y0.
X233.045Y-42.862
X243.205Y-42.862
X185.42Y-23.812
X195.58Y-23.812
X285.433Y-23.812
X295.592Y-23.812
X256.858Y-42.862
X267.017Y-42.862
X33.02Y0.
X43.18Y0.
X56.832Y-80.962
X66.992Y-80.962
X28.258Y-61.912
X38.417Y-61.912
X194.945Y-42.862
X205.105Y-42.862
X-2.699Y-61.912
X7.461Y-61.912
X266.382Y-80.962
X276.542Y-80.962
X94.932Y-80.962
X105.093Y-80.962
X33.02Y-23.812
X43.18Y-23.812
X90.17Y0.
X100.33Y0.
X147.32Y-23.812
X157.48Y-23.812
X85.407Y-61.912
X95.567Y-61.912
X156.845Y-42.862
X167.005Y-42.862
X161.607Y-61.912
X171.767Y-61.912
X-5.08Y-23.812
X5.08Y-23.812
X42.545Y-42.862
X52.705Y-42.862
X199.707Y-61.912
X209.867Y-61.912
X111.601Y-100.012
X121.761Y-100.012
X52.07Y0.
X62.23Y0.
X109.22Y-23.812
X119.38Y-23.812
X128.27Y-23.812
X138.43Y-23.812
X75.882Y-80.962
X86.042Y-80.962
X204.47Y0.
X214.63Y0.
X2.064Y-61.912
X12.224Y-61.912
X90.17Y-23.812
X100.33Y-23.812
X123.507Y-61.912
X133.667Y-61.912
X71.12Y-23.812
X81.28Y-23.812
X23.495Y-42.862
X33.655Y-42.862
X247.332Y-100.012
X257.493Y-100.012
X71.12Y0.
X81.28Y0.
X113.983Y-80.962
X124.142Y-80.962
X80.645Y-42.862
X90.805Y-42.862
X61.595Y-42.862
X71.755Y-42.862
X266.382Y-100.012
X276.542Y-100.012
X285.433Y-100.012
X295.592Y-100.012
X285.433Y-42.862
X295.592Y-42.862
X249.714Y-61.912
X259.874Y-61.912
X252.095Y-23.812
X262.255Y-23.812
X37.782Y-80.962
X47.942Y-80.962
X99.695Y-42.862
X109.855Y-42.862
X204.47Y-100.012
X214.63Y-100.012
X190.183Y-80.962
X200.343Y-80.962
X40.164Y-100.012
X50.324Y-100.012
X66.358Y-61.912
X76.517Y-61.912
X242.57Y0.
X252.73Y0.
X261.62Y0.
X271.78Y0.
X142.558Y-61.912
X152.718Y-61.912
X137.795Y-42.862
X147.955Y-42.862
X237.807Y-80.962
X247.968Y-80.962
X218.757Y-61.912
X228.917Y-61.912
X225.901Y-100.012
X236.061Y-100.012
X223.52Y0.
X233.68Y0.
X-0.318Y-42.862
X9.842Y-42.862
X118.745Y0.
X128.905Y0.
X213.995Y-42.862
X224.155Y-42.862
X-2.699Y-100.012
X7.461Y-100.012
X156.845Y0.
X167.005Y0.
X206.851Y-100.012
X217.011Y-100.012
X133.032Y-80.962
X143.192Y-80.962
X18.732Y-100.012
X28.892Y-100.012
T2
X230.95Y-73.977
X254.825Y-73.977
X242.856Y-68.897
X266.732Y-68.897
X-0.032Y-73.977
X23.844Y-73.977
X66.675Y-106.997
X166.688Y-106.997
X245.237Y-16.828
X269.113Y-16.828
T3
X157.162Y-80.962
X19.05Y-23.812
X180.975Y0.
X57.15Y-23.812
X188.119Y-100.012
X233.362Y-100.012
X245.237Y-32.067
X269.113Y-32.067
X0.Y0.
X238.125Y-42.862
X190.5Y-23.812
X290.512Y-23.812
X261.938Y-42.862
X38.1Y0.
X61.912Y-80.962
X33.337Y-61.912
X200.025Y-42.862
X2.381Y-61.912
X271.462Y-80.962
X100.012Y-80.962
X38.1Y-23.812
X95.25Y0.
X152.4Y-23.812
X90.487Y-61.912
X161.925Y-42.862
X166.688Y-61.912
X0.Y-23.812
X47.625Y-42.862
X204.787Y-61.912
X116.681Y-100.012
X57.15Y0.
X114.3Y-23.812
X133.35Y-23.812
X80.962Y-80.962
X209.55Y0.
X7.144Y-61.912
X95.25Y-23.812
X128.588Y-61.912
X76.2Y-23.812
X28.575Y-42.862
X252.412Y-100.012
X76.2Y0.
X119.062Y-80.962
X85.725Y-42.862
X66.675Y-42.862
X271.462Y-100.012
X290.512Y-100.012
X290.512Y-42.862
X254.794Y-61.912
X257.175Y-23.812
X42.862Y-80.962
X104.775Y-42.862
X209.55Y-100.012
X195.262Y-80.962
X45.244Y-100.012
X71.438Y-61.912
X230.95Y-89.218
X254.825Y-89.218
X247.65Y0.
X266.7Y0.
X147.637Y-61.912
X142.875Y-42.862
X242.887Y-80.962
X223.837Y-61.912
X230.981Y-100.012
X228.6Y0.
X4.763Y-42.862
X123.825Y0.
X219.075Y-42.862
X2.381Y-100.012
X161.925Y0.
X242.856Y-53.657
X266.732Y-53.657
X211.931Y-100.012
X138.112Y-80.962
X23.812Y-100.012
X171.45Y-23.812
X11.906Y-80.962
X290.512Y0.
X142.875Y0.
X123.825Y-42.862
X209.55Y-23.812
X109.537Y-61.912
X176.213Y-80.962
X214.312Y-80.962
X-0.032Y-89.218
X23.844Y-89.218
X228.6Y-23.812
X185.737Y-61.912
X66.675Y-91.757
X166.688Y-91.757
X52.387Y-61.912
X180.975Y-42.862
T0
M30
