G04 #@! TF.GenerationSoftware,KiCad,Pcbnew,(5.0.2)-1*
G04 #@! TF.CreationDate,2019-05-19T13:57:28+09:00*
G04 #@! TF.ProjectId,D780-PCB,44373830-2d50-4434-922e-6b696361645f,rev?*
G04 #@! TF.SameCoordinates,Original*
G04 #@! TF.FileFunction,Legend,Top*
G04 #@! TF.FilePolarity,Positive*
%FSLAX46Y46*%
G04 Gerber Fmt 4.6, Leading zero omitted, Abs format (unit mm)*
G04 Created by KiCad (PCBNEW (5.0.2)-1) date 2019-05-19 오후 1:57:28*
%MOMM*%
%LPD*%
G01*
G04 APERTURE LIST*
%ADD10C,0.150000*%
G04 APERTURE END LIST*
G04 #@! TO.C,S2*
D10*
X256413095Y-24717261D02*
X256555952Y-24764880D01*
X256794047Y-24764880D01*
X256889285Y-24717261D01*
X256936904Y-24669642D01*
X256984523Y-24574404D01*
X256984523Y-24479166D01*
X256936904Y-24383928D01*
X256889285Y-24336309D01*
X256794047Y-24288690D01*
X256603571Y-24241071D01*
X256508333Y-24193452D01*
X256460714Y-24145833D01*
X256413095Y-24050595D01*
X256413095Y-23955357D01*
X256460714Y-23860119D01*
X256508333Y-23812500D01*
X256603571Y-23764880D01*
X256841666Y-23764880D01*
X256984523Y-23812500D01*
X257365476Y-23860119D02*
X257413095Y-23812500D01*
X257508333Y-23764880D01*
X257746428Y-23764880D01*
X257841666Y-23812500D01*
X257889285Y-23860119D01*
X257936904Y-23955357D01*
X257936904Y-24050595D01*
X257889285Y-24193452D01*
X257317857Y-24764880D01*
X257936904Y-24764880D01*
G04 #@! TO.C,S3*
X254031845Y-61817261D02*
X254174702Y-61864880D01*
X254412797Y-61864880D01*
X254508035Y-61817261D01*
X254555654Y-61769642D01*
X254603273Y-61674404D01*
X254603273Y-61579166D01*
X254555654Y-61483928D01*
X254508035Y-61436309D01*
X254412797Y-61388690D01*
X254222321Y-61341071D01*
X254127083Y-61293452D01*
X254079464Y-61245833D01*
X254031845Y-61150595D01*
X254031845Y-61055357D01*
X254079464Y-60960119D01*
X254127083Y-60912500D01*
X254222321Y-60864880D01*
X254460416Y-60864880D01*
X254603273Y-60912500D01*
X254936607Y-60864880D02*
X255555654Y-60864880D01*
X255222321Y-61245833D01*
X255365178Y-61245833D01*
X255460416Y-61293452D01*
X255508035Y-61341071D01*
X255555654Y-61436309D01*
X255555654Y-61674404D01*
X255508035Y-61769642D01*
X255460416Y-61817261D01*
X255365178Y-61864880D01*
X255079464Y-61864880D01*
X254984226Y-61817261D01*
X254936607Y-61769642D01*
G04 #@! TO.C,S4*
X242125595Y-81867261D02*
X242268452Y-81914880D01*
X242506547Y-81914880D01*
X242601785Y-81867261D01*
X242649404Y-81819642D01*
X242697023Y-81724404D01*
X242697023Y-81629166D01*
X242649404Y-81533928D01*
X242601785Y-81486309D01*
X242506547Y-81438690D01*
X242316071Y-81391071D01*
X242220833Y-81343452D01*
X242173214Y-81295833D01*
X242125595Y-81200595D01*
X242125595Y-81105357D01*
X242173214Y-81010119D01*
X242220833Y-80962500D01*
X242316071Y-80914880D01*
X242554166Y-80914880D01*
X242697023Y-80962500D01*
X243554166Y-81248214D02*
X243554166Y-81914880D01*
X243316071Y-80867261D02*
X243077976Y-81581547D01*
X243697023Y-81581547D01*
G04 #@! TO.C,S5*
X11144345Y-81867261D02*
X11287202Y-81914880D01*
X11525297Y-81914880D01*
X11620535Y-81867261D01*
X11668154Y-81819642D01*
X11715773Y-81724404D01*
X11715773Y-81629166D01*
X11668154Y-81533928D01*
X11620535Y-81486309D01*
X11525297Y-81438690D01*
X11334821Y-81391071D01*
X11239583Y-81343452D01*
X11191964Y-81295833D01*
X11144345Y-81200595D01*
X11144345Y-81105357D01*
X11191964Y-81010119D01*
X11239583Y-80962500D01*
X11334821Y-80914880D01*
X11572916Y-80914880D01*
X11715773Y-80962500D01*
X12620535Y-80914880D02*
X12144345Y-80914880D01*
X12096726Y-81391071D01*
X12144345Y-81343452D01*
X12239583Y-81295833D01*
X12477678Y-81295833D01*
X12572916Y-81343452D01*
X12620535Y-81391071D01*
X12668154Y-81486309D01*
X12668154Y-81724404D01*
X12620535Y-81819642D01*
X12572916Y-81867261D01*
X12477678Y-81914880D01*
X12239583Y-81914880D01*
X12144345Y-81867261D01*
X12096726Y-81819642D01*
G04 #@! TD*
M02*
